<?xml version="1.0" encoding="UTF-8" standalone="no"?>
<svg width="675px" height="22px" viewBox="0 0 675 22" version="1.1" xmlns="http://www.w3.org/2000/svg" xmlns:xlink="http://www.w3.org/1999/xlink" xmlns:sketch="http://www.bohemiancoding.com/sketch/ns">
    <title>header</title>
    <description>Created with Sketch (http://www.bohemiancoding.com/sketch)</description>
    <defs></defs>
    <g id="Page-1" stroke="none" stroke-width="1" fill="none" fill-rule="evenodd" sketch:type="MSPage">
        <g id="Text-copy" sketch:type="MSLayerGroup" transform="translate(1.000000, 0.000000)">
            <path d="M338.592,6.952 C336.184,6.952 335.036,10.312 334.868,11.404 L335.316,11.46 C335.708,10.34 336.38,8.8 337.22,8.8 C337.5,8.8 337.584,9.024 337.584,9.36 C337.584,13.448 334.532,18.124 332.152,18.18 C332.152,18.18 332.88,10.872 332.88,8.716 C332.88,7.82 332.684,6.952 331.704,6.952 C329.296,6.952 328.148,10.312 327.98,11.404 L328.428,11.46 C328.82,10.34 329.492,8.8 330.332,8.8 C330.612,8.8 330.696,9.024 330.696,9.36 C330.612,12.048 330.108,20.14 330.108,20.14 L330.416,20.42 C333.384,19.384 335.848,17.116 337.304,14.456 C337.136,17.116 336.996,20.14 336.996,20.14 L337.304,20.42 C343.296,18.18 346.964,12.048 346.964,8.912 C346.964,7.82 346.292,6.98 345.172,6.98 C344.332,6.98 343.604,7.596 343.436,8.604 C344.304,8.744 344.668,9.528 344.668,10.424 C344.668,13.616 341.168,18.18 339.04,18.18 C339.04,18.18 339.768,10.872 339.768,8.716 C339.768,7.82 339.572,6.952 338.592,6.952 Z M346.86,18.656 C346.776,18.936 346.776,19.048 346.776,19.3 C346.776,19.916 347.14,20.42 347.784,20.42 C348.456,20.42 348.792,20.224 348.792,20.224 C348.792,17.424 352.6,9.024 355.288,9.024 C356.128,9.024 356.296,9.584 356.296,9.892 C356.296,10.088 356.24,10.256 356.24,10.256 C356.24,10.256 356.324,10.284 356.436,10.284 C357.192,10.284 358.172,9.78 358.172,8.632 C358.172,7.708 357.556,6.98 356.38,6.98 C352.936,6.98 349.604,14.96 349.604,14.96 L349.492,14.96 C349.716,14.344 350.5,12.384 352.684,6.98 C350.248,8.156 347.532,8.268 347.532,8.268 L347.532,8.884 C348.708,8.884 349.324,9.024 349.324,9.668 C349.324,9.92 349.184,10.424 349.128,10.62 L346.86,18.656 Z M363.5,6.98 C361.064,8.156 358.348,8.268 358.348,8.268 L358.348,8.884 C359.524,8.884 360.14,9.024 360.14,9.668 C360.14,10.004 360.028,10.34 359.944,10.564 L357.9,16.304 C357.368,17.76 357.2,18.6 357.2,19.384 C357.2,20.196 357.592,20.448 358.264,20.448 C360.196,20.448 362.604,17.816 363.5,16.164 L363.08,15.884 C362.492,16.724 360.504,18.6 359.804,18.6 C359.552,18.6 359.44,18.488 359.44,18.208 C359.44,17.76 359.692,16.92 360.196,15.576 L363.5,6.98 Z M363.696,2.92 C364.62,2.92 365.292,2.024 365.292,1.212 C365.292,0.512 364.816,0.008 364.116,0.008 C363.192,0.008 362.52,0.904 362.52,1.716 C362.52,2.416 362.996,2.92 363.696,2.92 Z M371.32,3.956 C371.208,3.844 370.788,3.648 370.368,3.648 C369.444,3.648 368.772,4.124 368.38,5.244 L367.652,7.232 L365.776,7.624 L365.692,8.436 L367.204,8.492 L364.46,16.36 C364.124,17.312 364.012,18.096 364.012,18.712 C364.012,19.832 364.516,20.448 365.468,20.448 C367.512,20.448 369.808,17.088 370.648,15.464 L370.172,15.184 C369.276,16.5 367.764,18.32 366.784,18.32 C366.532,18.32 366.308,18.18 366.308,17.788 C366.308,17.144 366.728,15.828 367.54,13.644 L369.416,8.548 L372.888,8.548 L373.392,7.316 L369.836,7.316 C369.836,7.316 370.676,4.6 371.32,3.956 Z M375.5,20.448 C379.224,20.448 382.78,16.332 385.664,12.916 C385.944,14.456 386.448,15.912 386.448,17.06 C386.448,18.208 385.748,18.964 384.432,18.964 C383.508,18.964 383.172,18.068 383.172,17.312 C382.584,17.312 381.156,17.928 381.156,19.216 C381.156,20.112 381.996,20.504 383.032,20.504 C386.14,20.504 388.184,17.928 388.184,15.072 C388.184,14.316 387.736,12.636 387.344,11.18 C389.164,9.472 389.892,8.156 389.892,7.624 C389.892,7.148 389.5,6.896 389.024,6.896 C386.868,6.896 385.356,8.856 385.356,10.788 C385.356,11.572 385.524,12.076 385.524,12.076 C382.388,15.52 378.916,18.852 376.312,18.852 C374.856,18.852 374.38,17.788 374.38,16.752 C374.38,15.772 374.52,14.96 374.8,14.008 C380.036,12.636 382.696,11.068 382.696,8.884 C382.696,7.96 382.136,6.952 380.54,6.952 C375.332,6.952 372.084,13.056 372.084,17.06 C372.084,19.188 373.26,20.448 375.5,20.448 Z M387.148,10.2 C387.148,10.2 386.952,9.472 386.952,8.828 C386.952,8.38 387.176,8.156 387.484,8.156 C387.736,8.156 387.848,8.352 387.848,8.716 C387.848,9.08 387.624,9.584 387.148,10.2 Z M380.54,9.08 C380.54,11.488 376.928,12.692 375.024,13.252 C375.612,11.6 377.236,8.072 379.588,8.072 C380.176,8.072 380.54,8.436 380.54,9.08 Z" id="writes" fill="#268BD2" sketch:type="MSShapeGroup"></path>
            <path d="M421.648,18.004 C422.786672,18.004 423.766663,17.8126686 424.588,17.43 C425.409337,17.0473314 426.267996,16.4360042 427.164,15.596 L429.292,17.78 C427.21999,20.0760115 424.704681,21.224 421.746,21.224 C418.787319,21.224 416.332676,20.2720095 414.382,18.368 C412.431324,16.4639905 411.456,14.0560146 411.456,11.144 C411.456,8.23198544 412.44999,5.80534304 414.438,3.864 C416.42601,1.92265696 418.936651,0.952 421.97,0.952 C425.003349,0.952 427.537323,2.0719888 429.572,4.312 L427.472,6.608 C426.538662,5.71199552 425.656671,5.08666844 424.826,4.732 C423.995329,4.37733156 423.020006,4.2 421.9,4.2 C419.921323,4.2 418.260007,4.83932694 416.916,6.118 C415.571993,7.39667306 414.9,9.02999006 414.9,11.018 C414.9,13.0060099 415.567327,14.6673267 416.902,16.002 C418.236673,17.3366733 419.818658,18.004 421.648,18.004 Z M444.614667,21.196 C441.702652,21.196 439.257343,20.2300097 437.278667,18.298 C435.29999,16.3659903 434.310667,13.9580144 434.310667,11.074 C434.310667,8.18998558 435.29999,5.78200966 437.278667,3.85 C439.257343,1.91799034 441.702652,0.952 444.614667,0.952 C447.526681,0.952 449.97199,1.91799034 451.950667,3.85 C453.929343,5.78200966 454.918667,8.18998558 454.918667,11.074 C454.918667,13.9580144 453.929343,16.3659903 451.950667,18.298 C449.97199,20.2300097 447.526681,21.196 444.614667,21.196 Z M444.614667,3.976 C442.673324,3.976 441.03534,4.66665976 439.700667,6.048 C438.365993,7.42934024 437.698667,9.10465682 437.698667,11.074 C437.698667,13.0433432 438.365993,14.7186598 439.700667,16.1 C441.03534,17.4813402 442.673324,18.172 444.614667,18.172 C446.55601,18.172 448.193993,17.4813402 449.528667,16.1 C450.86334,14.7186598 451.530667,13.0433432 451.530667,11.074 C451.530667,9.10465682 450.86334,7.42934024 449.528667,6.048 C448.193993,4.66665976 446.55601,3.976 444.614667,3.976 Z M476.569333,3.99 C478.454676,5.69800854 479.397333,8.07331812 479.397333,11.116 C479.397333,14.1586819 478.482676,16.5666578 476.653333,18.34 C474.823991,20.1133422 472.024019,21 468.253333,21 L461.757333,21 L461.757333,1.428 L468.477333,1.428 C471.986684,1.428 474.683991,2.28199146 476.569333,3.99 Z M476.065333,11.2 C476.065333,6.7199776 473.498692,4.48 468.365333,4.48 L465.061333,4.48 L465.061333,17.892 L468.729333,17.892 C471.100012,17.892 472.915327,17.327339 474.175333,16.198 C475.43534,15.068661 476.065333,13.4026777 476.065333,11.2 Z M500.068,1.428 L500.068,4.536 L489.624,4.536 L489.624,9.716 L499.004,9.716 L499.004,12.656 L489.624,12.656 L489.624,17.892 L500.404,17.892 L500.404,21 L486.32,21 L486.32,1.428 L500.068,1.428 Z M521.193334,4.592 C520.577331,4.98400196 520.269334,5.5766627 520.269334,6.37 C520.269334,7.1633373 520.577331,7.7699979 521.193334,8.19 C521.809337,8.6100021 523.120657,9.06266424 525.127334,9.548 C527.13401,10.0333358 528.645995,10.7146623 529.663334,11.592 C530.680672,12.4693377 531.189334,13.7619915 531.189334,15.47 C531.189334,17.1780085 530.54534,18.5639947 529.257334,19.628 C527.969327,20.6920053 526.280011,21.224 524.189334,21.224 C521.127985,21.224 518.412012,20.1693439 516.041334,18.06 L518.113334,15.568 C520.09201,17.2853419 522.145323,18.144 524.273334,18.144 C525.337339,18.144 526.181997,17.9153356 526.807334,17.458 C527.43267,17.0006644 527.745334,16.3940038 527.745334,15.638 C527.745334,14.8819962 527.451337,14.2940021 526.863334,13.874 C526.275331,13.4539979 525.262674,13.0713351 523.825334,12.726 C522.387993,12.3806649 521.296004,12.0633348 520.549334,11.774 C519.802663,11.4846652 519.140003,11.106669 518.561334,10.64 C517.403995,9.76266228 516.825334,8.41867572 516.825334,6.608 C516.825334,4.79732428 517.483327,3.4020049 518.799334,2.422 C520.11534,1.4419951 521.743991,0.952 523.685334,0.952 C524.936007,0.952 526.177328,1.15733128 527.409334,1.568 C528.64134,1.97866872 529.705329,2.5573296 530.601334,3.304 L528.837334,5.796 C528.258664,5.27333072 527.474672,4.84400168 526.485334,4.508 C525.495995,4.17199832 524.520672,4.004 523.559334,4.004 C522.597996,4.004 521.809337,4.19999804 521.193334,4.592 Z M552.616,1.428 L555.92,1.428 L555.92,21 L552.336,21 L541.248,6.72 L541.248,21 L537.944,21 L537.944,1.428 L541.248,1.428 L552.616,16.044 L552.616,1.428 Z M564.018667,1.428 L567.322667,1.428 L567.322667,21 L564.018667,21 L564.018667,1.428 Z M588.637334,3.136 C590.000007,4.27467236 590.681334,6.02932148 590.681334,8.4 C590.681334,10.7706785 589.986008,12.5066612 588.595334,13.608 C587.20466,14.7093388 585.072015,15.26 582.197334,15.26 L578.725334,15.26 L578.725334,21 L575.421334,21 L575.421334,1.428 L582.141334,1.428 C585.109349,1.428 587.27466,1.99732764 588.637334,3.136 Z M586.299334,11.214 C586.962004,10.5139965 587.293334,9.4873401 587.293334,8.134 C587.293334,6.7806599 586.873338,5.8240028 586.033334,5.264 C585.19333,4.7039972 583.877343,4.424 582.085334,4.424 L578.725334,4.424 L578.725334,12.264 L582.561334,12.264 C584.390676,12.264 585.636664,11.9140035 586.299334,11.214 Z M610.456001,3.136 C611.818674,4.27467236 612.500001,6.02932148 612.500001,8.4 C612.500001,10.7706785 611.804674,12.5066612 610.414001,13.608 C609.023327,14.7093388 606.890682,15.26 604.016001,15.26 L600.544001,15.26 L600.544001,21 L597.240001,21 L597.240001,1.428 L603.960001,1.428 C606.928016,1.428 609.093327,1.99732764 610.456001,3.136 Z M608.118001,11.214 C608.780671,10.5139965 609.112001,9.4873401 609.112001,8.134 C609.112001,6.7806599 608.692005,5.8240028 607.852001,5.264 C607.011997,4.7039972 605.69601,4.424 603.904001,4.424 L600.544001,4.424 L600.544001,12.264 L604.380001,12.264 C606.209343,12.264 607.455331,11.9140035 608.118001,11.214 Z M632.806667,1.428 L632.806667,4.536 L622.362667,4.536 L622.362667,9.716 L631.742667,9.716 L631.742667,12.656 L622.362667,12.656 L622.362667,17.892 L633.142667,17.892 L633.142667,21 L619.058667,21 L619.058667,1.428 L632.806667,1.428 Z M647.429334,4.452 L647.429334,21 L644.125334,21 L644.125334,4.452 L638.189334,4.452 L638.189334,1.428 L653.365334,1.428 L653.365334,4.452 L647.429334,4.452 Z M663.172001,4.592 C662.555998,4.98400196 662.248001,5.5766627 662.248001,6.37 C662.248001,7.1633373 662.555998,7.7699979 663.172001,8.19 C663.788004,8.6100021 665.099324,9.06266424 667.106001,9.548 C669.112678,10.0333358 670.624663,10.7146623 671.642001,11.592 C672.659339,12.4693377 673.168001,13.7619915 673.168001,15.47 C673.168001,17.1780085 672.524007,18.5639947 671.236001,19.628 C669.947995,20.6920053 668.258678,21.224 666.168001,21.224 C663.106652,21.224 660.390679,20.1693439 658.020001,18.06 L660.092001,15.568 C662.070678,17.2853419 664.12399,18.144 666.252001,18.144 C667.316006,18.144 668.160664,17.9153356 668.786001,17.458 C669.411337,17.0006644 669.724001,16.3940038 669.724001,15.638 C669.724001,14.8819962 669.430004,14.2940021 668.842001,13.874 C668.253998,13.4539979 667.241341,13.0713351 665.804001,12.726 C664.36666,12.3806649 663.274671,12.0633348 662.528001,11.774 C661.781331,11.4846652 661.118671,11.106669 660.540001,10.64 C659.382662,9.76266228 658.804001,8.41867572 658.804001,6.608 C658.804001,4.79732428 659.461994,3.4020049 660.778001,2.422 C662.094008,1.4419951 663.722658,0.952 665.664001,0.952 C666.914674,0.952 668.155995,1.15733128 669.388001,1.568 C670.620007,1.97866872 671.683996,2.5573296 672.580001,3.304 L670.816001,5.796 C670.237331,5.27333072 669.453339,4.84400168 668.464001,4.508 C667.474663,4.17199832 666.499339,4.004 665.538001,4.004 C664.576663,4.004 663.788004,4.19999804 663.172001,4.592 Z" id="CODE-SNIPPETS" fill="#073642" sketch:type="MSShapeGroup"></path>
            <path d="M13.464,1.428 L13.464,4.536 L3.02,4.536 L3.02,9.716 L12.4,9.716 L12.4,12.656 L3.02,12.656 L3.02,17.892 L13.8,17.892 L13.8,21 L-0.284,21 L-0.284,1.428 L13.464,1.428 Z M35.5066667,3.99 C37.3920095,5.69800854 38.3346667,8.07331812 38.3346667,11.116 C38.3346667,14.1586819 37.4200092,16.5666578 35.5906667,18.34 C33.7613243,20.1133422 30.9613523,21 27.1906667,21 L20.6946667,21 L20.6946667,1.428 L27.4146667,1.428 C30.9240176,1.428 33.621324,2.28199146 35.5066667,3.99 Z M35.0026667,11.2 C35.0026667,6.7199776 32.4360257,4.48 27.3026667,4.48 L23.9986667,4.48 L23.9986667,17.892 L27.6666667,17.892 C30.0373453,17.892 31.8526604,17.327339 33.1126667,16.198 C34.372673,15.068661 35.0026667,13.4026777 35.0026667,11.2 Z M54.1893335,21 L50.4933335,21 L42.6253335,1.428 L46.3213335,1.428 L52.3413335,16.044 L58.3613335,1.428 L62.0573335,1.428 L54.1893335,21 Z M67.5240002,1.428 L70.8280002,1.428 L70.8280002,21 L67.5240002,21 L67.5240002,1.428 Z M93.598667,1.428 L96.902667,1.428 L96.902667,21 L93.318667,21 L82.230667,6.72 L82.230667,21 L78.926667,21 L78.926667,1.428 L82.230667,1.428 L93.598667,16.044 L93.598667,1.428 Z M107.773334,16.548 L105.813334,21 L102.285334,21 L110.909334,1.428 L114.437334,1.428 L123.061334,21 L119.533334,21 L117.573334,16.548 L107.773334,16.548 Z M116.229334,13.496 L112.673334,5.432 L109.117334,13.496 L116.229334,13.496 Z M132,4.592 C131.383997,4.98400196 131.076,5.5766627 131.076,6.37 C131.076,7.1633373 131.383997,7.7699979 132,8.19 C132.616004,8.6100021 133.927324,9.06266424 135.934,9.548 C137.940677,10.0333358 139.452662,10.7146623 140.47,11.592 C141.487339,12.4693377 141.996,13.7619915 141.996,15.47 C141.996,17.1780085 141.352007,18.5639947 140.064,19.628 C138.775994,20.6920053 137.086678,21.224 134.996,21.224 C131.934652,21.224 129.218679,20.1693439 126.848,18.06 L128.92,15.568 C130.898677,17.2853419 132.95199,18.144 135.08,18.144 C136.144006,18.144 136.988664,17.9153356 137.614,17.458 C138.239337,17.0006644 138.552,16.3940038 138.552,15.638 C138.552,14.8819962 138.258003,14.2940021 137.67,13.874 C137.081998,13.4539979 136.069341,13.0713351 134.632,12.726 C133.19466,12.3806649 132.102671,12.0633348 131.356,11.774 C130.60933,11.4846652 129.94667,11.106669 129.368,10.64 C128.210661,9.76266228 127.632,8.41867572 127.632,6.608 C127.632,4.79732428 128.289994,3.4020049 129.606,2.422 C130.922007,1.4419951 132.550657,0.952 134.492,0.952 C135.742673,0.952 136.983994,1.15733128 138.216,1.568 C139.448007,1.97866872 140.511996,2.5573296 141.408,3.304 L139.644,5.796 C139.065331,5.27333072 138.281339,4.84400168 137.292,4.508 C136.302662,4.17199832 135.327339,4.004 134.366,4.004 C133.404662,4.004 132.616004,4.19999804 132,4.592 Z M167.657334,21 L159.089334,21 L159.089334,1.428 L166.705334,1.428 C168.030674,1.428 169.173996,1.58666508 170.135334,1.904 C171.096672,2.22133492 171.810665,2.65066396 172.277334,3.192 C173.173338,4.20000504 173.621334,5.33866032 173.621334,6.608 C173.621334,8.13867432 173.136005,9.2773296 172.165334,10.024 C171.810666,10.2853346 171.568001,10.4486663 171.437334,10.514 C171.306667,10.5793337 171.073336,10.6866659 170.737334,10.836 C171.950673,11.0973346 172.916664,11.6433292 173.635334,12.474 C174.354004,13.3046708 174.713334,14.3359938 174.713334,15.568 C174.713334,16.9306735 174.246672,18.1346614 173.313334,19.18 C172.211995,20.3933394 170.326681,21 167.657334,21 Z M162.393334,9.548 L166.593334,9.548 C168.982679,9.548 170.177334,8.73600812 170.177334,7.112 C170.177334,6.178662 169.888004,5.50666872 169.309334,5.096 C168.730664,4.68533128 167.834673,4.48 166.621334,4.48 L162.393334,4.48 L162.393334,9.548 Z M162.393334,17.948 L167.573334,17.948 C168.786673,17.948 169.715331,17.7566686 170.359334,17.374 C171.003337,16.9913314 171.325334,16.2680053 171.325334,15.204 C171.325334,13.4679913 169.934681,12.6 167.153334,12.6 L162.393334,12.6 L162.393334,17.948 Z M184.072001,16.548 L182.112001,21 L178.584001,21 L187.208001,1.428 L190.736001,1.428 L199.360001,21 L195.832001,21 L193.872001,16.548 L184.072001,16.548 Z M192.528001,13.496 L188.972001,5.432 L185.416001,13.496 L192.528001,13.496 Z M220.366667,7.784 C220.366667,11.0133495 218.957348,13.0479958 216.138667,13.888 L221.262667,21 L217.062667,21 L212.386667,14.42 L208.046667,14.42 L208.046667,21 L204.742667,21 L204.742667,1.428 L212.022667,1.428 C215.009349,1.428 217.146661,1.93199496 218.434667,2.94 C219.722674,3.94800504 220.366667,5.56265556 220.366667,7.784 Z M215.970667,10.556 C216.642671,9.97733044 216.978667,9.04867306 216.978667,7.77 C216.978667,6.49132694 216.633338,5.61400238 215.942667,5.138 C215.251997,4.66199762 214.02001,4.424 212.246667,4.424 L208.046667,4.424 L208.046667,11.424 L212.162667,11.424 C214.029343,11.424 215.298664,11.1346696 215.970667,10.556 Z M234.905334,4.452 L234.905334,21 L231.601334,21 L231.601334,4.452 L225.665334,4.452 L225.665334,1.428 L240.841334,1.428 L240.841334,4.452 L234.905334,4.452 Z M247.092001,1.428 L250.396001,1.428 L250.396001,10.976 L259.356001,1.428 L263.556001,1.428 L255.688001,9.996 L263.668001,21 L259.748001,21 L253.252001,12.432 L250.396001,15.512 L250.396001,21 L247.092001,21 L247.092001,1.428 Z M277.506668,18.088 C279.037342,18.088 280.250663,17.5653386 281.146668,16.52 C282.042672,15.4746614 282.490668,14.056009 282.490668,12.264 L282.490668,1.428 L285.794668,1.428 L285.794668,12.404 C285.794668,15.2226808 285.020009,17.3926591 283.470668,18.914 C281.921327,20.4353409 279.933346,21.196 277.506668,21.196 C275.079989,21.196 273.092009,20.4353409 271.542668,18.914 C269.993327,17.3926591 269.218668,15.2226808 269.218668,12.404 L269.218668,1.428 L272.522668,1.428 L272.522668,12.264 C272.522668,14.056009 272.970663,15.4746614 273.866668,16.52 C274.762672,17.5653386 275.975993,18.088 277.506668,18.088 Z M297.197334,4.592 C296.581331,4.98400196 296.273334,5.5766627 296.273334,6.37 C296.273334,7.1633373 296.581331,7.7699979 297.197334,8.19 C297.813338,8.6100021 299.124658,9.06266424 301.131334,9.548 C303.138011,10.0333358 304.649996,10.7146623 305.667334,11.592 C306.684673,12.4693377 307.193334,13.7619915 307.193334,15.47 C307.193334,17.1780085 306.549341,18.5639947 305.261334,19.628 C303.973328,20.6920053 302.284012,21.224 300.193334,21.224 C297.131986,21.224 294.416013,20.1693439 292.045334,18.06 L294.117334,15.568 C296.096011,17.2853419 298.149324,18.144 300.277334,18.144 C301.34134,18.144 302.185998,17.9153356 302.811334,17.458 C303.436671,17.0006644 303.749334,16.3940038 303.749334,15.638 C303.749334,14.8819962 303.455337,14.2940021 302.867334,13.874 C302.279332,13.4539979 301.266675,13.0713351 299.829334,12.726 C298.391994,12.3806649 297.300005,12.0633348 296.553334,11.774 C295.806664,11.4846652 295.144004,11.106669 294.565334,10.64 C293.407995,9.76266228 292.829334,8.41867572 292.829334,6.608 C292.829334,4.79732428 293.487328,3.4020049 294.803334,2.422 C296.119341,1.4419951 297.747991,0.952 299.689334,0.952 C300.940007,0.952 302.181328,1.15733128 303.413334,1.568 C304.645341,1.97866872 305.70933,2.5573296 306.605334,3.304 L304.841334,5.796 C304.262665,5.27333072 303.478673,4.84400168 302.489334,4.508 C301.499996,4.17199832 300.524673,4.004 299.563334,4.004 C298.601996,4.004 297.813338,4.19999804 297.197334,4.592 Z" id="EDVINAS-BARTKUS" fill="#073642" sketch:type="MSShapeGroup"></path>
        </g>
    </g>
</svg>